<svg width="22" height="24" viewBox="0 0 22 24" fill="none" xmlns="http://www.w3.org/2000/svg">
<path d="M10.9167 9.35221H13.0833V6.10221H16.3333V3.93555H13.0833V0.685547H10.9167V3.93555H7.66667V6.10221H10.9167V9.35221ZM6.58334 19.1022C5.39167 19.1022 4.4275 20.0772 4.4275 21.2689C4.4275 22.4605 5.39167 23.4355 6.58334 23.4355C7.775 23.4355 8.75 22.4605 8.75 21.2689C8.75 20.0772 7.775 19.1022 6.58334 19.1022ZM17.4167 19.1022C16.225 19.1022 15.2608 20.0772 15.2608 21.2689C15.2608 22.4605 16.225 23.4355 17.4167 23.4355C18.6083 23.4355 19.5833 22.4605 19.5833 21.2689C19.5833 20.0772 18.6083 19.1022 17.4167 19.1022ZM6.7675 15.5814L6.8 15.4514L7.775 13.6855H15.8458C16.6583 13.6855 17.3733 13.2414 17.7417 12.5697L21.9233 4.97555L20.0383 3.93555H20.0275L18.8358 6.10221L15.8458 11.5189H8.24084L8.1 11.2264L5.67334 6.10221L4.64417 3.93555L3.62584 1.76888H0.0833359V3.93555H2.25L6.15 12.158L4.6875 14.8122C4.51417 15.1155 4.41667 15.473 4.41667 15.8522C4.41667 17.0439 5.39167 18.0189 6.58334 18.0189H19.5833V15.8522H7.03834C6.8975 15.8522 6.7675 15.733 6.7675 15.5814Z" fill="black"/>
</svg>
